<?xml version="1.0" encoding="utf-8"?>
<!-- Generator: Adobe Illustrator 23.0.3, SVG Export Plug-In . SVG Version: 6.00 Build 0)  -->
<svg version="1.1" id="Layer_1" xmlns="http://www.w3.org/2000/svg" xmlns:xlink="http://www.w3.org/1999/xlink" x="0px" y="0px"
	 viewBox="0 0 48 48" style="enable-background:new 0 0 48 48;" xml:space="preserve">
<style type="text/css">
	.st0{fill:#0B4369;}
	.st1{fill:#FFFFFF;}
</style>
<circle class="st0" cx="24" cy="24" r="21.4"/>
<g>
	<path class="st1" d="M24,30.7c2.8,0,5.5-1.1,7.6-3.2c2-2,3.2-4.7,3.2-7.6s-1.1-5.6-3.2-7.6L24,4.7l-7.6,7.6c-4.2,4.2-4.2,11,0,15.2
		C18.5,29.6,21.2,30.7,24,30.7z M18.5,14.4L24,8.9l5.5,5.5c1.5,1.5,2.3,3.4,2.3,5.5s-0.8,4-2.3,5.5c-3,3-8,3-11,0
		C15.4,22.4,15.4,17.4,18.5,14.4z"/>
	<path class="st1" d="M37.8,32.6c0,2-1.6,3.6-3.6,3.6v0c0,0,0,0,0,0c-2,0-3.6-1.6-3.6-3.6h0h-3l0,0c0,2-1.6,3.6-3.6,3.6
		c-2,0-3.6-1.6-3.6-3.6l0,0h-3h0c0,2-1.6,3.6-3.6,3.6c0,0,0,0,0,0v0c-2,0-3.6-1.6-3.6-3.6h-3c0,3.6,2.9,6.6,6.6,6.6c0,0,0,0,0,0l0,0
		c2,0,3.9-0.9,5.1-2.4c1.2,1.5,3,2.4,5.1,2.4l0,0l0,0c2,0,3.9-0.9,5.1-2.4c1.2,1.5,3,2.4,5.1,2.4c0,0,0,0,0,0l0,0
		c3.6,0,6.6-2.9,6.6-6.6H37.8z"/>
	<path class="st1" d="M37.8,32.6c0,2-1.6,3.6-3.6,3.6v0c0,0,0,0,0,0c-2,0-3.6-1.6-3.6-3.6h0h-3l0,0c0,2-1.6,3.6-3.6,3.6
		c-2,0-3.6-1.6-3.6-3.6l0,0h-3h0c0,2-1.6,3.6-3.6,3.6c0,0,0,0,0,0v0c-2,0-3.6-1.6-3.6-3.6h-3c0,3.6,2.9,6.6,6.6,6.6c0,0,0,0,0,0l0,0
		c2,0,3.9-0.9,5.1-2.4c1.2,1.5,3,2.4,5.1,2.4l0,0l0,0c2,0,3.9-0.9,5.1-2.4c1.2,1.5,3,2.4,5.1,2.4c0,0,0,0,0,0l0,0
		c3.6,0,6.6-2.9,6.6-6.6H37.8z"/>
</g>
</svg>
